<?xml version="1.0" encoding="utf-8"?>
<!-- Generator: Adobe Illustrator 24.2.1, SVG Export Plug-In . SVG Version: 6.00 Build 0)  -->
<svg version="1.1" id="Layer1" xmlns="http://www.w3.org/2000/svg" xmlns:xlink="http://www.w3.org/1999/xlink" x="0px" y="0px"
	 viewBox="0 0 300 300" style="enable-background:new 0 0 300 300;" xml:space="preserve">
<style type="text/css">
	.st0{fill:url(#SVGID_1_);}
	.st1{fill:url(#SVGID_2_);}
	.st2{fill:url(#SVGID_3_);}
	.st3{fill:url(#SVGID_4_);}
	.st4{fill:#5CF2CD;}
	.st5{fill:#14BD92;}
	.st6{opacity:0.5;fill:none;stroke:#030C15;stroke-width:2;stroke-miterlimit:10;}
	.st7{fill:#A5A58D;stroke:#000000;stroke-width:0.75;stroke-miterlimit:10;}
	.st8{fill:#596E69;stroke:#000000;stroke-width:0.75;stroke-miterlimit:10;}
	.st9{opacity:0.25;fill:#030C15;}
	.st10{opacity:0.75;fill:#0B1723;}
	.st11{fill:#7BFFF7;}
	.st12{fill:#43AFA9;}
	.st13{fill:#55D8D0;}
	.st14{fill:#FEDD4C;}
	.st15{opacity:0.75;fill:#F2F2F2;}
	.st16{fill:#04B96C;}
	.st17{fill:none;stroke:#000000;stroke-width:0.5209;stroke-miterlimit:10;}
	.st18{opacity:0.5;fill:#0B1723;}
	.st19{opacity:0.5;}
	.st20{fill:url(#SVGID_5_);}
	.st21{fill:none;}
	.st22{fill:#0B1723;}
	.st23{fill:#D44C6E;}
	.st24{fill:url(#SVGID_6_);}
	.st25{fill:#804CD6;stroke:#000000;stroke-width:0.5;stroke-miterlimit:10;}
	.st26{fill:#14BD92;stroke:#000000;stroke-width:0.5;stroke-miterlimit:10;}
	.st27{fill:#FEA5AD;stroke:#000000;stroke-width:0.5;stroke-miterlimit:10;}
	.st28{fill:#9870FF;stroke:#000000;stroke-width:0.5;stroke-miterlimit:10;}
	.st29{fill:#FEDD4C;stroke:#000000;stroke-width:0.5;stroke-miterlimit:10;}
	.st30{fill:#D44C6E;stroke:#000000;stroke-width:0.5;stroke-miterlimit:10;}
	.st31{fill:#F3577D;stroke:#000000;stroke-width:0.5;stroke-miterlimit:10;}
	.st32{opacity:0.25;fill:#F2F2F2;}
	.st33{filter:url(#Adobe_OpacityMaskFilter);}
	.st34{mask:url(#SVGID_7_);}
	.st35{fill:none;stroke:#180056;stroke-miterlimit:10;}
	.st36{fill:#121212;}
	.st37{fill:#D44C6E;stroke:#333333;stroke-width:0.3;stroke-miterlimit:10;}
	.st38{fill:#D44C6E;stroke:#333333;stroke-width:0.384;stroke-miterlimit:10;}
	.st39{fill:#B44778;stroke:#333333;stroke-width:0.384;stroke-miterlimit:10;}
	.st40{fill:#B44778;stroke:#333333;stroke-width:0.3935;stroke-miterlimit:10;}
	.st41{fill:#BCBDAF;stroke:#000000;stroke-width:0.75;stroke-miterlimit:10;}
	.st42{fill:#D44C6E;stroke:#000000;stroke-width:0.8809;stroke-miterlimit:10;}
	.st43{stroke:#000000;stroke-width:1.937;stroke-miterlimit:10;}
	.st44{fill:#D44C6E;stroke:#000000;stroke-width:0.7072;stroke-miterlimit:10;}
	.st45{fill:#BCBDAF;stroke:#000000;stroke-width:0.2712;stroke-miterlimit:10;}
	.st46{fill:#BCBDAF;stroke:#000000;stroke-width:0.413;stroke-miterlimit:10;}
	.st47{stroke:#000000;stroke-width:1.5552;stroke-miterlimit:10;}
	.st48{fill:#D44C6E;stroke:#000000;stroke-width:0.1438;stroke-miterlimit:10;}
	.st49{fill:#F2F2F2;}
</style>
<g id="Back_x5F_01">
	<radialGradient id="SVGID_1_" cx="150" cy="150" r="150" gradientUnits="userSpaceOnUse">
		<stop  offset="0" style="stop-color:#FA70AF"/>
		<stop  offset="1" style="stop-color:#180056"/>
	</radialGradient>
	<rect x="0" y="0" class="st0" width="300" height="300"/>
</g>
<g id="Back_x5F_02">
	<radialGradient id="SVGID_2_" cx="150" cy="150" r="150" gradientUnits="userSpaceOnUse">
		<stop  offset="0" style="stop-color:#5CF2CD"/>
		<stop  offset="1" style="stop-color:#180056"/>
	</radialGradient>
	<rect x="0" y="0" class="st1" width="300" height="300"/>
</g>
<g id="Back_x5F_03">
	<radialGradient id="SVGID_3_" cx="150" cy="150" r="150" gradientUnits="userSpaceOnUse">
		<stop  offset="0" style="stop-color:#E0B915"/>
		<stop  offset="1" style="stop-color:#180056"/>
	</radialGradient>
	<rect x="0" y="0" class="st2" width="300" height="300"/>
</g>
<g id="Back_x5F_04">
	<radialGradient id="SVGID_4_" cx="150" cy="150" r="150" gradientUnits="userSpaceOnUse">
		<stop  offset="0" style="stop-color:#FEA5AD"/>
		<stop  offset="0.9954" style="stop-color:#B44778"/>
	</radialGradient>
	<rect x="0" y="0" class="st3" width="300" height="300"/>
</g>
<g id="Body_x5F_01">
	<path class="st4" d="M171.3,180.9l-0.3,4.3l-1.9,25.9l-6,82.7l-0.2,3.3c-78.6-2.4-125-1.4-129-61.4c0,0,45.4-46.7,45.8-47.1
		c6.3-7,11.8-18.5,11.8-18.5L171.3,180.9z"/>
	<path class="st5" d="M262.2,233.2c-21.1,54.9-48.9,61-99.1,60.6c-6.1,0-12.5-0.2-19.3-0.4l2.5-30.8l7-47.2l4.2-32.3l13.4,2.1
		l21-15.1l14.2,14.7L262.2,233.2z"/>
	<line class="st6" x1="186.5" y1="180.9" x2="262.2" y2="249.8"/>
	<path class="st5" d="M137.2,290.1v-17.6c0-10-7-18.7-16.9-20.7l-92.7-19.3l13.5,41.4L137.2,290.1z"/>
	<circle class="st7" cx="143.8" cy="249.8" r="2.3"/>
	<circle class="st7" cx="141.5" cy="277.2" r="2.3"/>
	<circle class="st7" cx="148.9" cy="218.2" r="2.3"/>
	<circle class="st8" cx="160" cy="246.5" r="2.3"/>
	<circle class="st8" cx="201.4" cy="234.2" r="2.3"/>
	<circle class="st8" cx="239" cy="220.5" r="2.3"/>
	<circle class="st7" cx="124.4" cy="246.2" r="2.3"/>
	<circle class="st7" cx="90.7" cy="238.4" r="2.3"/>
	<circle class="st7" cx="48.4" cy="229.2" r="2.3"/>
	<path class="st9" d="M157.6,290.1l-1.1-17.3c-0.7-10.4,5.5-20,15.3-23.7l75.6-28.6l26.9,23.7C216.9,276.7,179,302.6,157.6,290.1z"
		/>
</g>
<g id="Head_x5F_01">
	<path class="st10" d="M207.7,184.7L207.7,184.7c-0.9,1.9-2.6,3.3-4.6,3.8l-51.4,13.7c-1.1,0.3-2.2,0.3-3.3,0.1l-66.5-13.8
		c-3.9-0.8-6.4-4.6-5.6-8.5l1-5.2c0.8-3.9,4.5-6.4,8.4-5.7l72.4,13.2c0.9,0.2,1.8,0.2,2.7,0l39-7.8
		C205.6,173.2,210.3,179.3,207.7,184.7z"/>
	<path class="st11" d="M66.2,56.7l36.1-11.9c12-3.9,23.2-2.5,37-0.8s103.9,12.5,106.2,30.1L169,93L66.2,56.7z"/>
	<path class="st12" d="M155.4,194.1l44.1-8.5c8.9-1.7,16.3-8,19.5-16.5l27.5-73.8c2.3-10.3,0-18.6-1-21.1l-68,16.1L155.4,194.1z"/>
	<path class="st13" d="M161.2,186.8l24.4-86.9c3.5-12.5-4.4-25.2-17.2-27.6L76.2,55.2c-12.1-2.3-22.9,8-21.1,20.2L68,165.9
		c0.9,6.2,5.5,11.2,11.6,12.5l69.9,15.4C154.6,195,159.8,191.9,161.2,186.8z"/>
	<path class="st12" d="M158.5,182.7l22.1-78.4c3.2-11.2-4-22.8-15.5-24.9L81.8,63.9c-10.9-2-20.6,7.3-19.1,18.3l11.7,81.7
		c0.8,5.6,5,10.1,10.5,11.3l63,13.9C152.6,190.1,157.3,187.3,158.5,182.7z"/>
	<path class="st14" d="M157.3,180.7l22.1-78.4c3.2-11.2-4-22.8-15.5-24.9L80.5,62c-10.9-2-20.6,7.3-19.1,18.3l11.7,81.7
		c0.8,5.6,5,10.1,10.5,11.3l63,13.9C151.3,188.1,156,185.3,157.3,180.7z"/>
	<path class="st15" d="M79.1,166.3c-3-2-6.5-25.9-9.8-49.5c-4-28.7-12.6-54.4,10.7-51.9c0,0-7.6,12.9-7.6,35.5
		S79.1,166.3,79.1,166.3z"/>
	<path class="st15" d="M155.8,164.1c0,0-0.4,16.4-4.1,18.6c-2.9,1.7-20.2-1.7-20.2-1.7C142.6,182.4,151.9,179.6,155.8,164.1z"/>
	<path class="st16" d="M146.1,147c-0.1,0-0.3,0-0.4,0c-3.9-0.6-5.1-5.4-6.5-10.9c-1.4-5.8-3.1-12.3-7.6-13.5
		c-3.6-0.9-6.4,2.4-10.3,7.6c-3.6,4.8-7.6,10.2-13.6,9.1c-6.7-1.3-7.3-8.7-7.8-14.7c-0.4-4.4-0.7-9-3.1-9.9c-2.8-1.1-6,4.9-8.4,9.4
		c-2.6,4.9-4.4,8.4-7.5,7.7c-3.3-0.7-4.2-5.7-5.3-12.1c-0.5-3.1-1.4-8.2-2.4-9.1c-2.3-0.6-6.9,3.8-6.9,3.9l-0.5-3.5
		c1.2-2.3,4.3-5.5,8.7-4.1c3.1,1,4,5.9,5.1,12.2c0.5,2.7,1.2,7.2,2.1,8.6c0.9-1,2.3-3.6,3.2-5.4c3.2-6.1,7.2-13.7,13.4-11.2
		c4.7,1.9,5.2,7.7,5.6,13.3c0.5,6.3,1.1,10.5,4.5,11.1c3.6,0.7,6.5-3.3,9.7-7.6c3.7-5,8-10.7,14.5-9.1c6.9,1.7,8.9,9.8,10.5,16.4
		c0.8,3.1,1.9,7.8,3.2,8c2.1,0.3,5.8-4.8,8.1-7.9c3.3-4.5,5.6-7.7,8.6-6.7c7.2,2.6,6.5,8.8,6.5,9.2l-1.2,4.1c0-0.1-1.9-7.6-6.4-9.4
		c-1,0.6-2.9,3.3-4.3,5.1C154.2,142.1,150.4,147.3,146.1,147z M73.2,110.4L73.2,110.4L73.2,110.4z"/>
</g>
<g id="Head_x5F_02">
	<path class="st10" d="M207.7,184.7L207.7,184.7c-0.9,1.9-2.6,3.3-4.6,3.8l-51.4,13.7c-1.1,0.3-2.2,0.3-3.3,0.1l-66.5-13.8
		c-3.9-0.8-6.4-4.6-5.6-8.5l1-5.2c0.8-3.9,4.5-6.4,8.4-5.7l72.4,13.2c0.9,0.2,1.8,0.2,2.7,0l39-7.8
		C205.6,173.2,210.3,179.3,207.7,184.7z"/>
	<path class="st11" d="M66.2,56.7l36.1-11.9c12-3.9,23.2-2.5,37-0.8s103.9,12.5,106.2,30.1L169,93L66.2,56.7z"/>
	<path class="st12" d="M155.4,194.1l44.1-8.5c8.9-1.7,16.3-8,19.5-16.5l27.5-73.8c2.3-10.3,0-18.6-1-21.1l-68,16.1L155.4,194.1z"/>
	<path class="st13" d="M161.2,186.8l24.4-86.9c3.5-12.5-4.4-25.2-17.2-27.6L76.2,55.2c-12.1-2.3-22.9,8-21.1,20.2L68,165.9
		c0.9,6.2,5.5,11.2,11.6,12.5l69.9,15.4C154.6,195,159.8,191.9,161.2,186.8z"/>
	<path class="st12" d="M158.5,182.7l22.1-78.4c3.2-11.2-4-22.8-15.5-24.9L81.8,63.9c-10.9-2-20.6,7.3-19.1,18.3l11.7,81.7
		c0.8,5.6,5,10.1,10.5,11.3l63,13.9C152.6,190.1,157.3,187.3,158.5,182.7z"/>
	<path class="st14" d="M157.3,180.7l22.1-78.4c3.2-11.2-4-22.8-15.5-24.9L80.5,62c-10.9-2-20.6,7.3-19.1,18.3l11.7,81.7
		c0.8,5.6,5,10.1,10.5,11.3l63,13.9C151.3,188.1,156,185.3,157.3,180.7z"/>
	<circle cx="102" cy="103.3" r="4.1"/>
	<circle cx="127.3" cy="107.4" r="4.1"/>
	<path class="st17" d="M105.6,115c2.4,3.1,8.8,5.6,14.1,1.9"/>
	<path class="st15" d="M79.1,166.3c-3-2-6.5-25.9-9.8-49.5c-4-28.7-12.6-54.4,10.7-51.9c0,0-7.6,12.9-7.6,35.5
		S79.1,166.3,79.1,166.3z"/>
	<path class="st15" d="M155.8,164.1c0,0-0.4,16.4-4.1,18.6c-2.9,1.7-20.2-1.7-20.2-1.7C142.6,182.4,151.9,179.6,155.8,164.1z"/>
</g>
<g id="Head_x5F_03">
	<path class="st18" d="M203.5,181.8l3.3,3.6c-0.9,1.9-1.7,2.6-3.8,3.1l-51.4,13.7c-1.1,0.3-2.2,0.3-3.3,0.1L80.2,188
		c2-2,4.8-6.2,6.3-9.3l-9.3-3.9c0.8-3.9,4.5-6.4,8.4-5.7l72.4,13.2c0.9,0.2,1.8,0.2,2.7,0l39-7.8
		C205.6,173.2,206.2,176.4,203.5,181.8z"/>
	<path class="st11" d="M66.2,56.7l36.1-11.9c12-3.9,23.2-2.5,37-0.8s103.9,12.5,106.2,30.1L169,93L66.2,56.7z"/>
	<path class="st12" d="M155.4,194.1l44.1-8.5c8.9-1.7,16.3-8,19.5-16.5l27.5-73.8c2.3-10.3,0-18.6-1-21.1l-68,16.1L155.4,194.1z"/>
	<path class="st13" d="M161.2,186.8l24.4-86.9c3.5-12.5-4.4-25.2-17.2-27.6L76.2,55.2c-12.1-2.3-22.9,8-21.1,20.2L68,165.9
		c0.9,6.2,5.5,11.2,11.6,12.5l69.9,15.4C154.6,195,159.8,191.9,161.2,186.8z"/>
</g>
<g id="Head_x5F_04">
	<path class="st19" d="M206.1,184.8c-9.8,11.7-22.5,20.9-37,26.3c-5,1.9-10.3,3.4-15.8,4.3c-5,0.9-10.2,1.4-15.5,1.4
		c-24.2,0-45.3-9.2-61.3-25c1.2-1.3,3.6-3.7,3.9-4.1c6.3-7,3.4-13.4,3.4-13.4l87.5,6.6l-0.3,4.3l31.1-4.6L206.1,184.8z"/>
	<circle class="st13" cx="138.2" cy="120.2" r="88.9"/>
	<linearGradient id="SVGID_5_" gradientUnits="userSpaceOnUse" x1="134.2238" y1="99.7779" x2="212.9905" y2="177.8887">
		<stop  offset="0" style="stop-color:#7BFFF7"/>
		<stop  offset="1" style="stop-color:#43AFA9"/>
	</linearGradient>
	<path class="st20" d="M227,120.2c0,49.1-39.8,88.9-88.9,88.9c-1.1,0-2.3,0-3.4-0.1c38.4-9.8,66.8-44.6,66.8-86.1
		c0-47.9-38-87-85.5-88.8c7.1-1.8,14.5-2.8,22.1-2.8C187.2,31.3,227,71.1,227,120.2z"/>
</g>
<g id="Head-05">
	<path class="st18" d="M91.4,170.1c0,0-1.3,7.9,2.8,10.8c4.1,3,28.7,7.6,40.5,8.6c11.8,1,45,3,51.8,0.4c9.5-3.6,13.8-11.2,13.8-11.2
		l-17.7-18.3L91.4,170.1z"/>
	<path class="st11" d="M66.2,56.7l36.1-11.9c12-3.9,23.2-2.5,37-0.8s103.9,12.5,106.2,30.1L169,93L66.2,56.7z"/>
	<path class="st12" d="M132.4,184.1l47.1,1.6c8.9-1.7,16.3-8,19.5-16.5l47.5-73.8c2.3-10.3,0-18.6-1-21.1l-68,16.1L132.4,184.1z"/>
	<path class="st13" d="M141.2,176.8l44.4-76.9c3.5-12.5-4.4-25.2-17.2-27.6L76.2,55.2c-12.1-2.3-22.9,8-21.1,20.2L88,165.9
		c2.4,6.2,5.5,11.2,11.6,12.5l29.9,5.4C134.6,185,138,181.8,141.2,176.8z"/>
</g>
<g id="Head_x5F_06">
	<path class="st18" d="M203.5,181.8l3.3,3.6c-0.9,1.9-1.7,2.6-3.8,3.1l-51.4,13.7c-1.1,0.3-2.2,0.3-3.3,0.1L80.2,188
		c2-2,4.8-6.2,6.3-9.3l-9.3-3.9c0.8-3.9,4.5-6.4,8.4-5.7l72.4,13.2c0.9,0.2,1.8,0.2,2.7,0l39-7.8
		C205.6,173.2,206.2,176.4,203.5,181.8z"/>
	<path class="st11" d="M66.2,56.7l36.1-11.9c12-3.9,23.2-2.5,37-0.8s103.9,12.5,106.2,30.1L169,93L66.2,56.7z"/>
	<path class="st12" d="M155.4,194.1l44.1-8.5c8.9-1.7,16.3-8,19.5-16.5l27.5-73.8c2.3-10.3,0-18.6-1-21.1l-68,16.1L155.4,194.1z"/>
	<path class="st13" d="M161.2,186.8l24.4-86.9c3.5-12.5-4.4-25.2-17.2-27.6L76.2,55.2c-12.1-2.3-22.9,8-21.1,20.2L68,165.9
		c0.9,6.2,5.5,11.2,11.6,12.5l69.9,15.4C154.6,195,159.8,191.9,161.2,186.8z"/>
	<polygon class="st13" points="185.8,88.1 186.6,49.7 167.1,73.2 	"/>
	<path class="st12" d="M196.6,78.1c1-2.4-10-28.4-10-28.4l-0.8,38.4C185.8,88.1,195.6,80.5,196.6,78.1z"/>
	<path class="st11" d="M183.2,88.6l-0.5-30.7l-18.1,21.9C172.8,81.2,178.6,85.2,183.2,88.6z"/>
	<polygon class="st13" points="58.9,69.8 58.1,31.4 77.6,54.9 	"/>
	<path class="st12" d="M78.7,53.2c-0.3-2.6-20.7-21.8-20.7-21.8L78.8,58C78.8,58,79.1,55.7,78.7,53.2z"/>
	<path class="st11" d="M60.1,65.3l0.5-26.2l16,18.9C68.5,59.2,64.7,62.4,60.1,65.3z"/>
</g>
<g id="Eye_x5F_01">
	<rect y="0" class="st21" width="300" height="300"/>
</g>
<g id="Eye_x5F_02">
	<ellipse class="st22" cx="141.1" cy="113.5" rx="18.3" ry="25"/>
	<ellipse class="st23" cx="138.2" cy="113.3" rx="16.8" ry="22.5"/>
	<ellipse class="st14" cx="137.2" cy="112.4" rx="12.8" ry="16.6"/>
	<ellipse class="st22" cx="78.6" cy="104.1" rx="17.7" ry="24.1"/>
	<ellipse class="st23" cx="74.8" cy="102.8" rx="16.3" ry="21.7"/>
	<ellipse class="st14" cx="72.9" cy="103" rx="12.4" ry="16.1"/>
</g>
<g id="Eye_x5F_03">
	<ellipse class="st22" cx="131.7" cy="111.5" rx="9.3" ry="12.6"/>
	<ellipse class="st23" cx="130.2" cy="111.4" rx="8.5" ry="11.4"/>
	<ellipse class="st14" cx="129.8" cy="111" rx="6.5" ry="8.4"/>
	<ellipse class="st22" cx="84" cy="104.1" rx="9" ry="12.2"/>
	<ellipse class="st23" cx="82.1" cy="103.4" rx="8.2" ry="11"/>
	<ellipse class="st14" cx="81.1" cy="103.5" rx="6.3" ry="8.1"/>
</g>
<g id="Eye_x5F_04">
	
		<radialGradient id="SVGID_6_" cx="117.3627" cy="105.054" r="46.7732" gradientTransform="matrix(0.9832 0.1825 -1.954784e-02 0.1053 4.0252 72.5702)" gradientUnits="userSpaceOnUse">
		<stop  offset="0" style="stop-color:#FEDD4C"/>
		<stop  offset="0.3791" style="stop-color:#FCDD4D"/>
		<stop  offset="0.5157" style="stop-color:#F5DC4F"/>
		<stop  offset="0.6131" style="stop-color:#EADA52"/>
		<stop  offset="0.6918" style="stop-color:#D9D857"/>
		<stop  offset="0.7593" style="stop-color:#C3D55E"/>
		<stop  offset="0.819" style="stop-color:#A7D166"/>
		<stop  offset="0.873" style="stop-color:#87CD70"/>
		<stop  offset="0.9227" style="stop-color:#61C87B"/>
		<stop  offset="0.9669" style="stop-color:#38C287"/>
		<stop  offset="1" style="stop-color:#14BD92"/>
	</radialGradient>
	<path class="st24" d="M71.5,96.2c7.1-4.2,87.3,9.8,91.7,16.6c0,0-2.1,5.8-47.9-2.9S71.5,96.2,71.5,96.2z"/>
</g>
<g id="Eye_x5F_05">
	<polygon class="st22" points="126.2,95.8 159,102.5 151.5,131.8 121.8,124.8 	"/>
	<polygon class="st23" points="125.2,94.3 158,101.1 150.5,130.3 120.8,123.3 	"/>
	<polygon class="st14" points="127.8,99.7 150.6,104.4 145.4,124.7 124.8,119.8 	"/>
	<polygon class="st22" points="70,85.6 102.9,91.4 96.3,120.9 66.4,114.7 	"/>
	<polygon class="st23" points="68.9,84.2 101.8,90 95.2,119.5 65.3,113.3 	"/>
	<polygon class="st14" points="71.7,89.5 94.5,93.5 90,114 69.2,109.7 	"/>
</g>
<g id="Eye_x5F_06">
	<polygon class="st25" points="60,82.4 82.7,86.8 78.4,106.7 57.6,102.6 56,87.4 	"/>
	<polygon class="st26" points="79.8,86.3 102.6,90.6 98.3,110.6 77.5,106.5 75.9,91.4 	"/>
	<polygon class="st27" points="96.4,89.6 119.2,93.7 115,113.6 94,109.8 92.5,94.6 	"/>
	<polygon class="st28" points="116.2,93.2 139.1,97.3 134.7,117.2 113.8,113.4 112.3,98.2 	"/>
	<polygon class="st29" points="135.5,96.6 158.4,100.8 154,120.8 133.1,116.9 131.6,101.7 	"/>
	<polygon class="st30" points="153.8,100 176.7,103.9 175.2,110.9 172.2,124.4 151.4,120.3 149.9,105.1 	"/>
	<polygon class="st31" points="153.8,100 176.7,103.9 171.4,110.1 172.2,124.4 151.4,120.3 149.9,105.1 	"/>
	<polygon class="st32" points="169.6,110 151.8,106.4 161.5,108.9 	"/>
	<polygon class="st32" points="150.2,106.1 132.4,102.4 142.2,105 	"/>
	<polygon class="st32" points="131.8,102.4 114,98.8 123.7,101.3 	"/>
	<polygon class="st32" points="112.3,98.8 94.5,95.2 104.2,97.7 	"/>
	<polygon class="st32" points="95.5,95.2 77.7,91.6 87.4,94.1 	"/>
	<polygon class="st32" points="75,91.5 57.2,87.9 66.9,90.4 	"/>
</g>
<g id="Mouth_x5F_01">
	<rect y="0" class="st21" width="300" height="300"/>
</g>
<g id="Mouth_x5F_02">
	<path class="st23" d="M133.4,170.5L86,160.1c-0.8-0.2-1.3-0.8-1.3-1.6l0.1-4.9c0-1,1-1.8,2-1.6l48,9.8c0.8,0.2,1.4,0.9,1.3,1.8
		l-0.6,5.6C135.3,170,134.4,170.7,133.4,170.5z"/>
	<path class="st14" d="M133.2,169.8L85,159.2c-0.6-0.1-1-0.6-1-1.2l0.1-5.1c0-0.8,0.7-1.3,1.5-1.2l48.8,9.9c0.6,0.1,1.1,0.7,1,1.4
		l-0.7,5.8C134.6,169.5,133.9,170,133.2,169.8z"/>
</g>
<g id="Mouth_x5F_03_1_">
	<path class="st23" d="M134.1,170.6l-48.7-10.7c-0.4-0.1-0.8-0.5-0.8-1l0.1-6.3c0-0.6,0.6-1.1,1.2-0.9l49.4,10.1
		c0.5,0.1,0.8,0.6,0.8,1.1l-0.8,6.9C135.2,170.4,134.7,170.8,134.1,170.6z"/>
	<path class="st14" d="M133.3,169.8l-48.5-10.7c-0.5-0.1-0.8-0.6-0.8-1.1l0.1-5.4c0-0.7,0.6-1.2,1.3-1l49.1,10
		c0.5,0.1,0.9,0.6,0.9,1.2l-0.8,6.1C134.6,169.6,134,170,133.3,169.8z"/>
	<defs>
		<filter id="Adobe_OpacityMaskFilter" filterUnits="userSpaceOnUse" x="83.6" y="151.7" width="51.9" height="17.3">
			
				<feColorMatrix  type="matrix" values="-1 0 0 0 1  0 -1 0 0 1  0 0 -1 0 1  0 0 0 1 0" color-interpolation-filters="sRGB" result="source"/>
		</filter>
	</defs>
	<mask maskUnits="userSpaceOnUse" x="83.6" y="151.7" width="51.9" height="17.3" id="SVGID_7_">
		<g class="st33">
			<path d="M133.3,169.8l-48.5-10.7c-0.5-0.1-0.8-0.6-0.8-1.1l0.1-5.4c0-0.7,0.6-1.2,1.3-1l49.1,10c0.5,0.1,0.9,0.6,0.9,1.2
				l-0.8,6.1C134.6,169.6,134,170,133.3,169.8z"/>
		</g>
	</mask>
	<g class="st34">
		<line class="st35" x1="83.7" y1="155.2" x2="135.4" y2="165.9"/>
		<line class="st35" x1="129" y1="160.3" x2="127.9" y2="168.9"/>
		<line class="st35" x1="121.9" y1="158.9" x2="120.8" y2="167.3"/>
		<line class="st35" x1="114.8" y1="157.5" x2="113.7" y2="165.7"/>
		<line class="st35" x1="107.7" y1="156" x2="106.6" y2="164.1"/>
		<line class="st35" x1="100.6" y1="154.6" x2="99.5" y2="162.7"/>
		<line class="st35" x1="93.4" y1="153.1" x2="92.4" y2="161.2"/>
		<line class="st35" x1="86.4" y1="151.7" x2="85.4" y2="159.8"/>
	</g>
</g>
<g id="Mouth_x5F_04">
	<path class="st23" d="M133.9,170.6L85.7,160c-0.5-0.1-0.9-0.6-0.9-1.2l0.1-5.8c0-0.7,0.7-1.3,1.4-1.1l48.9,10
		c0.6,0.1,1,0.7,0.9,1.3l-0.7,6.5C135.2,170.3,134.6,170.7,133.9,170.6z"/>
	<path class="st14" d="M133.2,169.8L85,159.2c-0.5-0.1-0.9-0.6-0.9-1.2l0.1-5.2c0-0.7,0.7-1.3,1.4-1.1l48.9,10
		c0.6,0.1,1,0.7,0.9,1.3l-0.7,5.9C134.6,169.5,133.9,170,133.2,169.8z"/>
	<path class="st16" d="M123.2,166.5c-0.1,0-0.1,0-0.2,0c-1.9-0.3-2.6-1.5-3.3-3c-0.7-1.5-1.6-3.1-3.8-3.6c-1.8-0.4-3.2,0.3-5.1,1.4
		c-1.7,1-3.7,2.2-6.7,1.6c-3.3-0.6-3.7-2.4-3.9-3.9c-0.2-1.1-0.4-2.2-1.6-2.6c-1.4-0.4-3,0.9-4.1,1.9c-1.2,1.1-2.1,1.9-3.7,1.6
		c-1.7-0.3-2.1-1.6-2.7-3.2c-0.3-0.8-0.7-2.1-1.2-2.3c-1.1-0.2-2.8,0.9-2.8,0.9l0-1.1c0.6-0.5,1.3-1.2,3.5-0.7
		c1.6,0.4,2,1.6,2.6,3.2c0.2,0.7,0.6,1.8,1.1,2.2c0.4-0.2,1.1-0.8,1.6-1.2c1.6-1.3,3.5-3,6.6-2.2c2.3,0.7,2.6,2.1,2.9,3.5
		c0.3,1.6,0.6,2.6,2.3,2.9c1.8,0.3,3.2-0.5,4.8-1.4c1.8-1.1,3.9-2.3,7.1-1.6c3.4,0.7,4.5,2.8,5.3,4.5c0.4,0.8,1,2,1.6,2.1
		c1,0.2,2.9-0.9,4-1.6c1.6-1,2.8-1.6,4.2-1.3c3.6,0.9,3.6,2.4,3.6,2.5l-0.2,1.7c0,0-1.7-2.6-3.9-3.3c-0.5,0.1-1.4,0.7-2.1,1.1
		C127.2,165.7,125.4,166.8,123.2,166.5z M86.9,154.4L86.9,154.4L86.9,154.4z"/>
</g>
<g id="Mouth_x5F_05">
	<path class="st36" d="M94,155.3l10.9-7.8l10.8,12.4c0.3,0.1-10.5-15.2-10.5-15.2S93.8,155.2,94,155.3z"/>
</g>
<g id="Mouth_x5F_04_1_">
	<path class="st36" d="M97.3,144.5c0,0-4.5,5.1-0.4,6.3c4.5,1.3,5-3.3,5-3.3s-1.3,5.1,5.3,5.1c4.8,0,2.7-6.4,2.7-6.4
		c0.2,0,1.6,6-2.7,6c-5.9,0.1-5.1-5.8-5.1-5.8s-0.3,5-5,4C93.4,149.6,97.2,144.4,97.3,144.5z"/>
</g>
<g id="Nose_x5F_01">
	<rect y="0" class="st21" width="300" height="300"/>
</g>
<g id="Nose_x5F_02">
	<path class="st37" d="M105.6,129.4l5.2,11c0.1,0.1-12.8-2-12.7-2l7.4-9.1C105.5,129.3,105.6,129.3,105.6,129.4z"/>
</g>
<g id="Nose_x5F_03">
	<circle class="st38" cx="104.2" cy="135.6" r="6.5"/>
</g>
<g id="Nose_x5F_04">
	<path class="st39" d="M104.3,131.5l-7.7-0.7v13l6.7,0.6c0.3,0.1,0.7,0.1,1,0.1c3.6,0,6.5-2.9,6.5-6.5S107.9,131.5,104.3,131.5z"/>
	<circle class="st38" cx="96.6" cy="137.3" r="6.5"/>
</g>
<g id="Nose_x5F_05">
	<path class="st40" d="M97.4,132.6l12.4,2.3c1.3,0.2,1.8,1.6,0.9,2.5l-6.8,7.4c-0.8,0.8-4.3,0.4-4.8-0.6l-3.6-9.5
		C95,133.5,96.1,132.3,97.4,132.6z"/>
	<path class="st38" d="M96.5,132.3l10.9,2.2c1.1,0.2,1.6,1.6,0.8,2.4l-6.9,7.4c-0.7,0.8-2,0.5-2.4-0.4l-4-9.6
		C94.4,133.2,95.3,132.1,96.5,132.3z"/>
</g>
<g id="Ear-01_1_">
	<rect y="0" class="st21" width="300" height="300"/>
</g>
<g id="Ear-02_1_">
	<path class="st41" d="M207.9,108c0,0,15-57.1,16.6-57.1s-10.8,55.5-10.8,55.5L207.9,108z"/>
	
		<ellipse transform="matrix(0.1681 -0.9858 0.9858 0.1681 51.1343 312.2659)" class="st42" cx="210.6" cy="125.8" rx="21.3" ry="14.7"/>
	
		<ellipse transform="matrix(0.1681 -0.9858 0.9858 0.1681 53.913 316.9224)" class="st42" cx="214.7" cy="126.5" rx="20" ry="14.4"/>
	
		<ellipse transform="matrix(0.1681 -0.9858 0.9858 0.1681 53.9166 317.0517)" class="st43" cx="214.8" cy="126.6" rx="10.5" ry="7.1"/>
</g>
<g id="Ear-03">
	
		<ellipse transform="matrix(0.1681 -0.9858 0.9858 0.1681 53.2496 302.4133)" class="st44" cx="205.8" cy="119.7" rx="17.1" ry="11.8"/>
	<polygon class="st45" points="222.5,46.6 222.2,53.4 224.8,54.3 224.9,45.7 	"/>
	<path class="st46" d="M227.7,64.5c0.8-1.4,1.2-3,1.1-4.8c-0.3-4.4-3.6-7.8-7.5-7.7s-6.7,3.8-6.5,8.2c0.1,1,0.3,1.9,0.6,2.7l2.3-1.5
		c0-0.2-0.1-0.4-0.1-0.5c-0.3-2.9,1.6-5.4,4-5.6c2.5-0.2,4.7,2,5,4.9c0.1,0.7,0,1.4-0.2,2L227.7,64.5"/>
	<path class="st46" d="M217.9,67.4c0-0.2-0.1-0.3-0.1-0.5c-0.2-2.7,1.4-5,3.7-5.2c2.3-0.2,4.3,1.9,4.5,4.5c0.1,0.7,0,1.3-0.1,1.9
		l1.2,2c0.8-1.3,1.1-2.8,1-4.4c-0.3-4.1-3.5-7.3-7.2-7.1c-3.7,0.1-6.5,3.6-6.3,7.6c0.1,0.9,0.3,1.8,0.6,2.5L217.9,67.4"/>
	<path class="st46" d="M217.5,70.6c0-0.1,0-0.2,0-0.3c0.1-1.4,1.7-2.5,3.5-2.4c1.9,0.1,3.3,1.4,3.3,2.8c0,0.4-0.1,0.7-0.3,1l1.6,3.7
		c0.9-0.9,1.4-2.1,1.5-3.4c0.3-3.3-2.3-6.2-5.8-6.6c-3.5-0.4-6.5,2-6.8,5.3c-0.1,0.7,0,1.4,0.2,2.1L217.5,70.6z"/>
	<path class="st46" d="M216.8,76.5c-0.2-0.4-0.4-1.1-0.3-1.6c0.1-1.4,1.7-2.5,3.5-2.4c1.9,0.1,3.3,1.4,3.3,2.8
		c0,0.4-0.2,1.3-0.8,1.9l2.1,2.8c0.9-0.9,1.4-2.1,1.5-3.4c0.3-3.3-2.3-6.2-5.8-6.6c-3.5-0.4-6.5,2-6.8,5.3c-0.1,0.7,0,1.4,0.2,2.1
		L216.8,76.5z"/>
	<path class="st46" d="M223.1,85.5c1-0.9,1.6-2.1,1.7-3.4c0.3-3.3-2.5-6.2-6.3-6.6s-7.2,2-7.5,5.3c-0.1,0.7,0,1.4,0.2,2.1l3.1-2.3
		c0-0.1,0-0.2,0-0.3c0.1-1.4,1.8-2.5,3.9-2.4s3.7,1.4,3.6,2.8c0,0.4-0.1,1-0.8,1.5L223.1,85.5"/>
	<path class="st46" d="M209.3,88.5c-0.2-0.7-0.3-1.5-0.2-2.2c0.3-3.5,3.8-6,7.7-5.6c3.9,0.4,6.9,3.5,6.5,7c-0.1,1.4-0.8,2.7-1.8,3.6
		l-1.8-3.9c0.2-0.3,0.3-0.7,0.4-1c0.1-1.5-1.6-2.9-3.7-3c-2.1-0.1-3.9,1-4,2.5c0,0.1,0,0.2,0,0.3L209.3,88.5z"/>
	<path class="st46" d="M208.9,115.9c0,0,5.2-11.1,4.6-14c-0.5-3-4.2-4.1-5-7.2c-0.8-3,0.4-9.8,8-8.9c4.8,0.5,5.4,5.6,5.1,7.2
		c-0.5,3-4.5,3.6-7.8,3.5s-3.3-4.5-3-5.2c0.1-0.2,1.6,1.5,3.7,2.2c1.9,0.6,4.4,0.3,4.8-1.6c0.4-2.5-1.9-3.8-4.4-3.9s-4.6,2.5-4,5.5
		s3.9,3.7,5.2,6.8s-4.1,15.3-4.1,15.3"/>
	
		<ellipse transform="matrix(0.1681 -0.9858 0.9858 0.1681 55.4835 306.2558)" class="st47" cx="209.2" cy="120.3" rx="8.4" ry="5.7"/>
	<circle class="st48" cx="223.9" cy="46.4" r="2.9"/>
</g>
<g id="Frame">
	<path class="st49" d="M0,0v300h300V0H0z M150,283.2c-73.6,0-133.2-59.6-133.2-133.2S76.4,16.8,150,16.8S283.2,76.4,283.2,150
		S223.6,283.2,150,283.2z"/>
</g>
</svg>
